<svg xmlns="http://www.w3.org/2000/svg" width="24" height="24" viewBox="0 0 24 24">
  <g id="Group_37" data-name="Group 37" transform="translate(-576 -1192)">
    <g id="Rectangle_61" data-name="Rectangle 61" transform="translate(576 1192)" fill="#7174c1" stroke="#707070" stroke-width="1" opacity="0">
      <rect width="24" height="24" stroke="none"/>
      <rect x="0.5" y="0.5" width="23" height="23" fill="none"/>
    </g>
    <path id="Union_1" data-name="Union 1" d="M1.833,20A1.822,1.822,0,0,1,0,18.2V4.018A1.82,1.82,0,0,1,1.78,2.227V4.646A2,2,0,0,0,3.806,6.621H5.083A2.009,2.009,0,0,0,7.121,4.646V2.218h5.759V4.646a2.009,2.009,0,0,0,2.037,1.975h1.278A2,2,0,0,0,18.22,4.646V2.227A1.82,1.82,0,0,1,20,4.018V18.2A1.824,1.824,0,0,1,18.167,20ZM2.339,9.99v7.324a.784.784,0,0,0,.793.775h13.7a.784.784,0,0,0,.793-.775V9.99a.784.784,0,0,0-.793-.775H3.131A.784.784,0,0,0,2.339,9.99Zm10.9,7.04a.459.459,0,0,1-.464-.454V14.993a.459.459,0,0,1,.464-.454h1.62a.459.459,0,0,1,.464.454v1.584a.459.459,0,0,1-.464.454Zm-4.049,0a.459.459,0,0,1-.464-.454V14.993a.459.459,0,0,1,.464-.454h1.62a.459.459,0,0,1,.464.454v1.584a.459.459,0,0,1-.464.454Zm-4.049,0a.459.459,0,0,1-.464-.454V14.993a.459.459,0,0,1,.464-.454h1.62a.459.459,0,0,1,.464.454v1.584a.459.459,0,0,1-.464.454Zm8.1-3.959a.459.459,0,0,1-.464-.454V11.034a.459.459,0,0,1,.464-.453h1.62a.459.459,0,0,1,.464.453v1.584a.459.459,0,0,1-.464.454Zm-4.049,0a.459.459,0,0,1-.464-.454V11.034a.459.459,0,0,1,.464-.453h1.62a.459.459,0,0,1,.464.453v1.584a.459.459,0,0,1-.464.454Zm-4.049,0a.459.459,0,0,1-.464-.454V11.034a.459.459,0,0,1,.464-.453h1.62a.459.459,0,0,1,.464.453v1.584a.459.459,0,0,1-.464.454ZM14.9,5.324a.687.687,0,0,1-.695-.679V.679A.687.687,0,0,1,14.9,0h1.264a.687.687,0,0,1,.694.679V4.645a.687.687,0,0,1-.694.679Zm-11.1,0a.687.687,0,0,1-.695-.679V.679A.687.687,0,0,1,3.8,0H5.065a.687.687,0,0,1,.695.679V4.645a.687.687,0,0,1-.695.679Z" transform="translate(578 1194)" fill="#7174c1"/>
  </g>
</svg>
