<svg xmlns="http://www.w3.org/2000/svg" width="24" height="24" viewBox="0 0 24 24">
  <g id="Group_39" data-name="Group 39" transform="translate(-568 -1232)">
    <g id="Rectangle_62" data-name="Rectangle 62" transform="translate(568 1232)" fill="#7174c1" stroke="#707070" stroke-width="1" opacity="0">
      <rect width="24" height="24" stroke="none"/>
      <rect x="0.5" y="0.5" width="23" height="23" fill="none"/>
    </g>
    <path id="Union_2" data-name="Union 2" d="M12.587,34.1a3.912,3.912,0,0,1,2.353-3.538V26.951h3.529v3.611A3.912,3.912,0,0,1,20.822,34.1,4.024,4.024,0,0,1,16.7,38.014,4.024,4.024,0,0,1,12.587,34.1Zm2.34,0a1.767,1.767,0,1,0,1.764-1.678A1.724,1.724,0,0,0,14.927,34.095Zm1.177,0a.589.589,0,1,1,.588.559A.575.575,0,0,1,16.1,34.095Zm4.131-7.132a.6.6,0,0,1-.489-.248l-.61-.869H14.274l-.61.869a.6.6,0,0,1-.489.248H11.293A.574.574,0,0,1,10.7,26.4V20.246h12V26.4a.574.574,0,0,1-.589.559Zm-4.118-3.915a.589.589,0,1,0,.589-.559A.575.575,0,0,0,16.116,23.048ZM10.7,19.127v-.553a.574.574,0,0,1,.588-.56H22.116a.574.574,0,0,1,.589.56v.553Z" transform="translate(563.295 1215.986)" fill="#7174c1"/>
  </g>
</svg>
