<svg xmlns="http://www.w3.org/2000/svg" width="24" height="24" viewBox="0 0 24 24">
  <g id="Group_37" data-name="Group 37" transform="translate(-576 -1192)">
    <g id="Rectangle_61" data-name="Rectangle 61" transform="translate(576 1192)" fill="#7174c1" stroke="#707070" stroke-width="1" opacity="0">
      <rect width="24" height="24" stroke="none"/>
      <rect x="0.5" y="0.5" width="23" height="23" fill="none"/>
    </g>
    <g id="gasoline" transform="translate(509.241 1194)">
      <g id="Group_43" data-name="Group 43" transform="translate(70.759)">
        <path id="Path_18" data-name="Path 18" d="M86.044,3.046h-.39V.884A.934.934,0,0,0,84.678,0H78.856a.989.989,0,0,0-.885.51L76.662,3.046h-.429a.755.755,0,0,0-.505.189l-.244.221-1.028-.93a.769.769,0,0,0-1.011,0l-2.476,2.24a.6.6,0,0,0,0,.914L72,6.611l-.223.2a.617.617,0,0,0-.209.457V19.353a.683.683,0,0,0,.715.647H86.044a.683.683,0,0,0,.715-.647V3.693A.683.683,0,0,0,86.044,3.046ZM83.3,14.35a.6.6,0,0,1,0,.914.769.769,0,0,1-1.011,0l-3.126-2.827-3.126,2.827a.769.769,0,0,1-1.011,0,.6.6,0,0,1,0-.914l3.126-2.827L75.025,8.7a.6.6,0,0,1,0-.914.769.769,0,0,1,1.011,0l3.126,2.827,3.126-2.827a.769.769,0,0,1,1.011,0,.6.6,0,0,1,0,.914l-3.126,2.827ZM83.7,2.7H79l.481-.933H83.7V2.7Z" transform="translate(-70.759)" fill="#7174c1"/>
      </g>
    </g>
  </g>
</svg>
