<svg xmlns="http://www.w3.org/2000/svg" width="24" height="24" viewBox="0 0 24 24">
  <g id="Group_39" data-name="Group 39" transform="translate(-568 -1232)">
    <g id="Rectangle_62" data-name="Rectangle 62" transform="translate(568 1232)" fill="#7174c1" stroke="#707070" stroke-width="1" opacity="0">
      <rect width="24" height="24" stroke="none"/>
      <rect x="0.5" y="0.5" width="23" height="23" fill="none"/>
    </g>
    <path id="Union_4" data-name="Union 4" d="M14.963,8.557c-.013-.056-.023-.114-.032-.172s-.013-.114-.016-.172c0-.038-.005-.075-.005-.113a1.762,1.762,0,1,1,3.513,0v0q0,.086-.008.169c0,.059-.013.117-.022.174a1.731,1.731,0,0,1-3.43.114ZM2.6,8.856c-.023-.056-.042-.113-.06-.172s-.031-.112-.042-.17A2.021,2.021,0,0,1,2.455,8.1,1.832,1.832,0,0,1,4.212,6.2,1.831,1.831,0,0,1,5.968,8.1a2.059,2.059,0,0,1-.029.336c-.01.058-.022.117-.037.173s-.033.118-.053.174A1.766,1.766,0,0,1,4.211,10,1.757,1.757,0,0,1,2.6,8.856ZM0,8.083l0-.037V6.031l.034-.047a1.038,1.038,0,0,0,.106-.4,1.3,1.3,0,0,1,.455-.79c.071-.264.449-.946,2.428-1.368a9.4,9.4,0,0,0,2-.553L5.1,2.79C5.215,2.674,7.98-.074,11.5,0a23.585,23.585,0,0,1,4.9.608,4.575,4.575,0,0,0,.7.129A1,1,0,0,1,17.2.73a.38.38,0,0,1,.317.15.731.731,0,0,1,.092.532c.063.067.211.2.334.3A3.483,3.483,0,0,1,18.933,2.8a.151.151,0,0,0,.023.053c.032,0,.052,0,.072-.006a.771.771,0,0,1,.095-.007c.318,0,.412.333.454.583.061.357.093.772.122,1.138a4.136,4.136,0,0,0,.136,1A2.836,2.836,0,0,1,19.787,7.6a1.405,1.405,0,0,1-1.067.815c.007-.06.013-.122.016-.183,0-.043.006-.086.006-.129,0-.018,0-.035,0-.052a2.163,2.163,0,0,0-2.074-2.195A2.168,2.168,0,0,0,14.592,8.1c0,.041,0,.081.005.121,0,.058.007.116.014.173s.014.115.026.172c-2.554.069-5.853.148-8.446.208.017-.057.03-.115.042-.173s.022-.115.03-.173A2.466,2.466,0,0,0,6.287,8.1,2.169,2.169,0,0,0,4.212,5.854,2.169,2.169,0,0,0,2.136,8.1a2.412,2.412,0,0,0,.038.422c.011.057.023.115.038.17s.032.116.051.172l-.3.007a3.331,3.331,0,0,1-.473.03C.624,8.9.111,8.618,0,8.083Z" transform="translate(570 1239)" fill="#7174c1"/>
  </g>
</svg>
