<svg xmlns="http://www.w3.org/2000/svg" width="24" height="24" viewBox="0 0 24 24">
  <g id="Group_37" data-name="Group 37" transform="translate(-576 -1192)">
    <g id="Rectangle_61" data-name="Rectangle 61" transform="translate(576 1192)" fill="#7174c1" stroke="#707070" stroke-width="1" opacity="0">
      <rect width="24" height="24" stroke="none"/>
      <rect x="0.5" y="0.5" width="23" height="23" fill="none"/>
    </g>
    <path id="Union_3" data-name="Union 3" d="M3.58,17.6a7.612,7.612,0,0,1,12.824.014A9.946,9.946,0,0,1,10,20,9.944,9.944,0,0,1,3.58,17.6Zm4.662-1.159h3.516V15.273H8.242Zm7.458-1.4A7.531,7.531,0,0,0,17.617,10,7.617,7.617,0,1,0,2.383,10,7.531,7.531,0,0,0,4.3,15.039a8.7,8.7,0,0,0-1.566,1.75A9.944,9.944,0,0,1,10,0h0a9.944,9.944,0,0,1,7.267,16.79A8.815,8.815,0,0,0,15.7,15.041ZM3.584,10.586H4.727V9.414H3.584A6.414,6.414,0,0,1,5.05,5.879l.807.807.829-.829L5.879,5.05A6.414,6.414,0,0,1,9.414,3.584V4.727h1.172V3.584A6.414,6.414,0,0,1,14.121,5.05l-.807.807.829.829.807-.807a6.414,6.414,0,0,1,1.466,3.535H15.273v1.172h1.142a6.359,6.359,0,0,1-1.663,3.753,8.7,8.7,0,0,0-9.5,0A6.36,6.36,0,0,1,3.584,10.586Zm4.914.328A1.758,1.758,0,1,0,10.914,8.5L6.476,6.476Zm1.5-.328h0Zm-.468-.22-.7-1.53,1.492.678a.589.589,0,1,1-.8.851Z" transform="translate(578 1194)" fill="#7174c1"/>
  </g>
</svg>
