<svg xmlns="http://www.w3.org/2000/svg" width="32" height="24" viewBox="0 0 32 24">
  <g id="parked-car" transform="translate(0 -37.486)">
    <path id="Path_2" data-name="Path 2" d="M22.693,86.485a1.189,1.189,0,0,0-.314.044l-1.194.329-1.24-3.021a2.707,2.707,0,0,0-2.315-1.552H6.022a2.706,2.706,0,0,0-2.315,1.552L2.468,86.853l-1.18-.325a1.188,1.188,0,0,0-.314-.044A.968.968,0,0,0,0,87.51v.7a1.259,1.259,0,0,0,1.258,1.258h.135l-.2.488a9.434,9.434,0,0,0-.592,3v6a1.259,1.259,0,0,0,1.258,1.258H3.5a1.259,1.259,0,0,0,1.258-1.258v-1.5H18.891v1.5a1.259,1.259,0,0,0,1.258,1.258h1.642a1.259,1.259,0,0,0,1.258-1.258v-6a9.436,9.436,0,0,0-.592-3l-.2-.488h.152a1.259,1.259,0,0,0,1.258-1.258v-.7A.968.968,0,0,0,22.693,86.485ZM3.37,88.789l1.876-4.57a1.627,1.627,0,0,1,1.388-.931H17.016a1.626,1.626,0,0,1,1.388.931l1.876,4.57a.628.628,0,0,1-.624.931H3.994A.628.628,0,0,1,3.37,88.789Zm4.188,5.78a.5.5,0,0,1-.5.5H3.491a.5.5,0,0,1-.5-.5v-1.71a.5.5,0,0,1,.5-.5H7.055a.5.5,0,0,1,.5.5Zm13.071,0a.5.5,0,0,1-.5.5H16.562a.5.5,0,0,1-.5-.5v-1.71a.5.5,0,0,1,.5-.5h3.564a.5.5,0,0,1,.5.5Z" transform="translate(0 -38.734)" fill="#fff"/>
    <g id="Group_24" data-name="Group 24" transform="translate(22.896 37.486)">
      <path id="Path_3" data-name="Path 3" d="M202.523,37.486h-5.957a1.6,1.6,0,0,0-1.573,1.628v6.165a1.6,1.6,0,0,0,1.573,1.628h2.392V60.744a.587.587,0,1,0,1.174,0V46.907h2.392a1.6,1.6,0,0,0,1.573-1.628V39.114A1.6,1.6,0,0,0,202.523,37.486ZM201.173,42.6a2.132,2.132,0,0,1-1.5.481h-.863a.192.192,0,0,0-.188.195v1.505a.292.292,0,0,1-.287.3h-.653a.292.292,0,0,1-.287-.3V39.615a.292.292,0,0,1,.287-.3h1.646a2.457,2.457,0,0,1,1.832.464,1.786,1.786,0,0,1,.531,1.41A1.837,1.837,0,0,1,201.173,42.6Z" transform="translate(-194.992 -37.486)" fill="#fff"/>
      <path id="Path_4" data-name="Path 4" d="M227.53,61.462a1.444,1.444,0,0,0-.837-.181H226.1a.188.188,0,0,0-.188.188v1.2a.188.188,0,0,0,.188.188h.355c.13,0,.341-.01.469-.021a1.606,1.606,0,0,0,.605-.16.9.9,0,0,0,0-1.208Z" transform="translate(-222.282 -58.487)" fill="#fff"/>
    </g>
  </g>
</svg>
