<svg xmlns="http://www.w3.org/2000/svg" width="18" height="16" viewBox="0 0 18 16">
  <path id="Path_58" data-name="Path 58" d="M17.533,18.774a1.26,1.26,0,0,0,1.161-1.4V13.5a.228.228,0,0,1,.172-.212,5.289,5.289,0,0,0,4.115-5.15,5.511,5.511,0,0,0-11.017,0,5.289,5.289,0,0,0,4.115,5.15.231.231,0,0,1,.172.22v3.863a1.26,1.26,0,0,0,1.161,1.4Zm4.01-10.635a4.072,4.072,0,0,1-8.142,0,4.072,4.072,0,0,1,8.142,0ZM10.293,17.2v-1.33h5.124V13.8l-.109-.029H10.669v-.56h3.28c-.085-.048-.175-.1-.268-.163H10.62v-.559h2.331a5.478,5.478,0,0,1-1.58-2.5h-3.7L7.6,10l-.047,0,.668-2.564a1.8,1.8,0,0,1,1.8-1.354h1.644c.067-.142.14-.284.22-.423H10.157a2.474,2.474,0,0,0-2.52,2.1l-.622,2.6a1.84,1.84,0,0,0-.166.083L6.7,9.193l-.006,0C6.51,9.126,6.428,8.8,5.739,8.8c-.441,0-.681.131-.711.389a3.219,3.219,0,0,0,0,1.189l1.689.133a1.569,1.569,0,0,0-.791,1.3V14.2a1.716,1.716,0,0,0,1.249,1.526V17.2c0,.54.7.979,1.559.979S10.293,17.744,10.293,17.2Zm-.386-3.471H7.092V12.452H9.908ZM20.419,9.471A3.46,3.46,0,0,0,18.447,4.93a.574.574,0,0,0-.741.305.549.549,0,0,0,.313.721,2.361,2.361,0,0,1,1.346,3.1.543.543,0,0,0,.125.6.558.558,0,0,0,.189.122.579.579,0,0,0,.213.04A.569.569,0,0,0,20.419,9.471Z" transform="translate(-4.982 -2.774)" fill="#fff"/>
</svg>
