<svg xmlns="http://www.w3.org/2000/svg" width="20" height="16" viewBox="0 0 20 16">
  <path id="Path_74" data-name="Path 74" d="M1.786,16a1.7,1.7,0,0,1-1.261-.534A1.766,1.766,0,0,1,0,14.182V5.159a5.946,5.946,0,0,0,1.127.989q4.04,2.8,5.547,3.921.636.477,1.032.744a6.332,6.332,0,0,0,1.055.545,3.164,3.164,0,0,0,1.228.278h.023a3.163,3.163,0,0,0,1.227-.278,6.329,6.329,0,0,0,1.055-.545q.4-.267,1.032-.744,1.9-1.4,5.558-3.921A6.19,6.19,0,0,0,20,5.159v9.023a1.766,1.766,0,0,1-.524,1.284A1.7,1.7,0,0,1,18.214,16ZM10,10.181H9.989a1.74,1.74,0,0,1-.558-.1,3.343,3.343,0,0,1-.642-.306q-.341-.2-.58-.369t-.6-.432q-.363-.267-.474-.347Q6.116,7.9,4.208,6.551T1.92,4.932A5.589,5.589,0,0,1,.614,3.619,2.682,2.682,0,0,1,0,2.068,2.322,2.322,0,0,1,.463.591,1.582,1.582,0,0,1,1.786,0H18.214A1.71,1.71,0,0,1,19.47.534,1.757,1.757,0,0,1,20,1.818a3.038,3.038,0,0,1-.547,1.716,5.353,5.353,0,0,1-1.361,1.4L12.868,8.625q-.112.08-.474.347t-.6.432q-.24.165-.58.369a3.345,3.345,0,0,1-.642.306,1.741,1.741,0,0,1-.558.1Z" fill="#fff"/>
</svg>
