<svg xmlns="http://www.w3.org/2000/svg" width="32" height="32" viewBox="0 0 32 32">
  <path id="Path_77" data-name="Path 77" d="M0,16A16,16,0,1,1,16,32,16,16,0,0,1,0,16Zm1.455,0A14.545,14.545,0,1,0,16,1.455,14.545,14.545,0,0,0,1.455,16Zm10.822,9.331c-3.3,0-4.89-1.569-4.89-3.252A3.274,3.274,0,0,1,9.137,19.3a9.786,9.786,0,0,1,4.343-1.046,2.387,2.387,0,0,1-.682-1.546,2.042,2.042,0,0,1,.227-.887c-.252.022-.5.045-.729.045A3.6,3.6,0,0,1,8.522,12.3,4.089,4.089,0,0,1,9.977,9.251,6.2,6.2,0,0,1,14.048,8h4.685l-1.455.819H15.869a3.834,3.834,0,0,1,1.615,3.071,3.85,3.85,0,0,1-1.91,3.229,1.6,1.6,0,0,0-.637,1.114,1.245,1.245,0,0,0,.59.977l.819.637c1,.842,1.91,1.616,1.91,3.186,0,2.137-2.07,4.3-5.979,4.3Zm-.934-6.071A2.556,2.556,0,0,0,9.386,21.6c0,1.615,1.569,2.774,4,2.774,2.183,0,3.343-1.046,3.343-2.455,0-1.161-.749-1.774-2.479-3a3.6,3.6,0,0,0-.522-.023A9.117,9.117,0,0,0,11.343,19.26ZM11.023,9.5a2.624,2.624,0,0,0-.5,1.683c0,1.523.887,4.048,2.844,4.048a2.333,2.333,0,0,0,1.546-.637,2.3,2.3,0,0,0,.569-1.661c0-1.636-.978-4.185-2.866-4.185A2.126,2.126,0,0,0,11.023,9.5Zm9.9,9.574V16.615H18.461V15.385h2.463V12.924h1.231v2.461h2.461v1.231H22.154v2.461Z" fill="#dd5144"/>
</svg>
