<svg xmlns="http://www.w3.org/2000/svg" width="32" height="32" viewBox="0 0 32 32">
  <path id="Path_66" data-name="Path 66" d="M0,16A16,16,0,1,1,16,32,16,16,0,0,1,0,16Zm1.455,0A14.545,14.545,0,1,0,16,1.455,14.545,14.545,0,0,0,1.455,16Zm11.351,7.385a9.537,9.537,0,0,1-5.42-1.7,6.727,6.727,0,0,0,.844.054,6.823,6.823,0,0,0,4.39-1.6,3.593,3.593,0,0,1-3.3-2.631,3.229,3.229,0,0,0,.665.073,3.349,3.349,0,0,0,.931-.127,3.755,3.755,0,0,1-2.836-3.721v-.048a3.383,3.383,0,0,0,1.6.49,3.965,3.965,0,0,1-1.094-5.05,9.954,9.954,0,0,0,7.287,4.026,3.928,3.928,0,0,1-.092-.854,3.572,3.572,0,0,1,3.535-3.684A3.517,3.517,0,0,1,21.9,9.833a6.79,6.79,0,0,0,2.244-.866A3.629,3.629,0,0,1,22.585,11a6.774,6.774,0,0,0,2.031-.556,7.268,7.268,0,0,1-1.764,1.9c.007.159.01.319.01.48,0,4.908-3.554,10.566-10.053,10.566Z" fill="#1da1f2"/>
</svg>
