<svg xmlns="http://www.w3.org/2000/svg" width="32" height="32" viewBox="0 0 32 32">
  <path id="Path_71" data-name="Path 71" d="M0,16A16,16,0,1,1,16,32,16,16,0,0,1,0,16Zm1.454,0A14.545,14.545,0,1,0,16,1.454,14.545,14.545,0,0,0,1.454,16Zm7.655,6.9a3.742,3.742,0,0,1,0-5.317l2.98-2.957c1.853-1.839,3.98-2.1,5.42-.674a.991.991,0,0,1-1.4,1.407c-.847-.84-2.009.062-2.626.675L10.5,19a1.76,1.76,0,0,0,0,2.5,1.812,1.812,0,0,0,2.544,0l.81-.8a.991.991,0,1,1,1.4,1.406l-.81.8a3.8,3.8,0,0,1-5.338,0Zm5.383-4.748a.991.991,0,1,1,1.4-1.407c.291.289.973.966,2.426-.476l3.18-3.155a1.76,1.76,0,0,0,0-2.5,1.606,1.606,0,0,0-2.345-.2l-1.008,1a.992.992,0,0,1-1.4-1.407l1.009-1a3.542,3.542,0,0,1,5.139.2,3.741,3.741,0,0,1,0,5.317l-3.18,3.155a4.366,4.366,0,0,1-2.992,1.467A3.126,3.126,0,0,1,14.492,18.157Z"/>
</svg>
