<svg xmlns="http://www.w3.org/2000/svg" width="16" height="16" viewBox="0 0 16 16">
  <path id="two-cars-in-line" d="M15.529,16.419a.538.538,0,0,0-.152.023l-.578.17-.6-1.563a1.31,1.31,0,0,0-1.119-.8H11.144v-1.2a5.184,5.184,0,0,0-.286-1.553l-.1-.252h.073a.631.631,0,0,0,.608-.651v-.364a.487.487,0,0,0-.471-.53.541.541,0,0,0-.152.023l-.577.17-.6-1.563a1.31,1.31,0,0,0-1.119-.8H2.911a1.311,1.311,0,0,0-1.119.8l-.6,1.561-.57-.168A.538.538,0,0,0,.471,9.7a.487.487,0,0,0-.471.53v.364a.631.631,0,0,0,.608.651H.673l-.1.252A5.18,5.18,0,0,0,.29,13.048v3.105A.631.631,0,0,0,.9,16.8h.794a.631.631,0,0,0,.608-.651v-.775H6.224L5.751,16.61l-.57-.168a.538.538,0,0,0-.152-.023.487.487,0,0,0-.471.53v.364a.631.631,0,0,0,.608.651h.065l-.1.252a5.182,5.182,0,0,0-.286,1.553v3.105a.631.631,0,0,0,.608.651H6.25a.631.631,0,0,0,.608-.651V22.1h6.833v.775a.631.631,0,0,0,.608.651h.794a.631.631,0,0,0,.608-.651V19.769a5.182,5.182,0,0,0-.286-1.553l-.1-.252h.073A.631.631,0,0,0,16,17.314V16.95A.486.486,0,0,0,15.529,16.419ZM9.974,13v.885a.253.253,0,0,1-.243.26H8.007a.253.253,0,0,1-.243-.26V13a.253.253,0,0,1,.243-.26H9.73A.253.253,0,0,1,9.974,13Zm-6.32.885a.253.253,0,0,1-.243.26H1.688a.253.253,0,0,1-.243-.26V13a.253.253,0,0,1,.243-.26H3.411a.253.253,0,0,1,.243.26v.885ZM1.931,11.372a.322.322,0,0,1-.3-.482l.907-2.364a.788.788,0,0,1,.671-.482h5.02a.787.787,0,0,1,.671.482l.907,2.364a.322.322,0,0,1-.3.482Zm4.256,6.24.907-2.364a.787.787,0,0,1,.671-.482h5.02a.787.787,0,0,1,.671.482l.907,2.364a.322.322,0,0,1-.3.482H6.489A.322.322,0,0,1,6.187,17.611ZM8.212,20.6a.253.253,0,0,1-.243.26H6.245A.253.253,0,0,1,6,20.6v-.885a.253.253,0,0,1,.243-.26H7.969a.253.253,0,0,1,.243.26V20.6Zm6.32,0a.253.253,0,0,1-.243.26H12.565a.253.253,0,0,1-.243-.26v-.885a.253.253,0,0,1,.243-.26h1.723a.253.253,0,0,1,.243.26Z" transform="translate(0 -7.525)" fill="#3d87c6"/>
</svg>
