<svg width="53" height="49" viewBox="0 0 53 49" fill="none" xmlns="http://www.w3.org/2000/svg">
<path d="M19 37V47.3296C19 48.0512 19.4603 48.6904 20.1419 48.9176C20.3123 48.9733 20.4871 49 20.6597 49C21.1775 49 21.6776 48.755 21.9963 48.3185L28 40.0958L19 37Z" fill="url(#paint0_linear)"/>
<path d="M52.3043 0.292085C51.7964 -0.0502137 51.1295 -0.0964135 50.5774 0.178685L0.890054 24.8536C0.302639 25.1455 -0.0440683 25.7419 0.00451487 26.3698C0.0553064 26.9998 0.494763 27.5374 1.11972 27.7411L14.9328 32.2308L44.3499 8.31195L21.5865 34.3917L44.7364 41.916C44.9086 41.9706 45.0897 42 45.2708 42C45.5711 42 45.8692 41.9223 46.132 41.7711C46.5516 41.5275 46.8365 41.118 46.9094 40.6581L52.9823 1.80828C53.0728 1.22028 52.8122 0.636483 52.3043 0.292085Z" fill="url(#paint1_linear)"/>
<defs>
<linearGradient id="paint0_linear" x1="19" y1="37" x2="30.52" y2="45.64" gradientUnits="userSpaceOnUse">
<stop stop-color="#C4C4C4"/>
<stop offset="0.0001" stop-color="#7174C1"/>
<stop offset="1" stop-color="#2482C2"/>
</linearGradient>
<linearGradient id="paint1_linear" x1="0" y1="0" x2="40.8887" y2="51.5976" gradientUnits="userSpaceOnUse">
<stop stop-color="#C4C4C4"/>
<stop offset="0.0001" stop-color="#7174C1"/>
<stop offset="1" stop-color="#2482C2"/>
</linearGradient>
</defs>
</svg>
