<svg width="57" height="57" viewBox="0 0 57 57" fill="none" xmlns="http://www.w3.org/2000/svg">
<path d="M17.8487 28.4997C17.8487 34.3728 22.6268 39.1505 28.5 39.1505C34.3729 39.1505 39.1506 34.3726 39.1506 28.4997C39.1506 22.6267 34.3729 17.8486 28.5 17.8486C22.6268 17.8486 17.8487 22.6267 17.8487 28.4997Z" fill="url(#paint0_linear)"/>
<path d="M53.0255 14.4404C53.1085 14.2945 53.107 14.1153 53.0212 13.9708C50.5403 9.79241 47.0097 6.29243 42.8111 3.84928C38.4838 1.331 33.5349 0 28.5 0C19.7865 0 11.6659 3.91039 6.22045 10.7285C6.10029 10.8788 6.08459 11.0872 6.18083 11.2537L14.2038 25.1495C14.2879 25.2953 14.443 25.3831 14.6082 25.3831C14.6292 25.3831 14.6505 25.3816 14.6716 25.3788C14.8596 25.3532 15.0134 25.2164 15.0609 25.0327C16.6429 18.9031 22.1692 14.6221 28.5 14.6221C28.8928 14.6221 29.2985 14.64 29.7063 14.6748C29.7196 14.6761 29.7331 14.6767 29.7463 14.6767H52.6194C52.7874 14.6767 52.9425 14.5866 53.0255 14.4404Z" fill="url(#paint1_linear)"/>
<path d="M32.7115 42.035C32.5954 41.8849 32.4007 41.8205 32.217 41.8713C31.0103 42.2073 29.7598 42.3776 28.5 42.3776C23.1474 42.3776 18.2142 39.2383 15.9318 34.38C15.9262 34.368 15.92 34.3564 15.9135 34.3449L4.46861 14.5223C4.38526 14.3775 4.2309 14.2887 4.06401 14.2887C4.06326 14.2887 4.06233 14.2887 4.06158 14.2887C3.89376 14.2896 3.7392 14.3803 3.65697 14.5264C1.26465 18.7715 0 23.6034 0 28.4998C0 35.3688 2.4781 42.0038 6.97774 47.1826C11.4327 52.3098 17.5659 55.684 24.248 56.6838C24.2712 56.6874 24.2943 56.6889 24.3173 56.6889C24.4823 56.6889 24.6375 56.601 24.7217 56.4552L32.7468 42.5551C32.8417 42.3906 32.8277 42.1851 32.7115 42.035Z" fill="url(#paint2_linear)"/>
<path d="M54.6032 17.7941H38.5359C38.346 17.7941 38.175 17.909 38.1035 18.0847C38.0317 18.2603 38.0734 18.4622 38.2089 18.5949C40.8972 21.2303 42.3777 24.7479 42.3777 28.4998C42.3777 31.3401 41.5207 34.0735 39.899 36.4047C39.8916 36.4155 39.8847 36.4265 39.8781 36.4379L28.4135 56.2948C28.3295 56.4402 28.3301 56.6195 28.4148 56.7645C28.4987 56.9078 28.6523 56.9957 28.8181 56.9957C28.8197 56.9957 28.8216 56.9957 28.8233 56.9957C36.3678 56.9116 43.4476 53.91 48.7582 48.5443C54.073 43.1742 57 36.0556 57 28.4998C57 24.9084 56.3399 21.4064 55.0381 18.0907C54.9678 17.9116 54.7953 17.7941 54.6032 17.7941Z" fill="url(#paint3_linear)"/>
<defs>
<linearGradient id="paint0_linear" x1="17.8487" y1="17.8486" x2="39.1506" y2="39.1505" gradientUnits="userSpaceOnUse">
<stop stop-color="#C4C4C4"/>
<stop offset="0.0001" stop-color="#7174C1"/>
<stop offset="1" stop-color="#2482C2"/>
</linearGradient>
<linearGradient id="paint1_linear" x1="6.11816" y1="0" x2="27.3521" y2="39.2908" gradientUnits="userSpaceOnUse">
<stop stop-color="#C4C4C4"/>
<stop offset="0.0001" stop-color="#7174C1"/>
<stop offset="1" stop-color="#2482C2"/>
</linearGradient>
<linearGradient id="paint2_linear" x1="0" y1="14.2887" x2="41.0432" y2="46.0481" gradientUnits="userSpaceOnUse">
<stop stop-color="#C4C4C4"/>
<stop offset="0.0001" stop-color="#7174C1"/>
<stop offset="1" stop-color="#2482C2"/>
</linearGradient>
<linearGradient id="paint3_linear" x1="28.3509" y1="17.7941" x2="65.7009" y2="45.09" gradientUnits="userSpaceOnUse">
<stop stop-color="#C4C4C4"/>
<stop offset="0.0001" stop-color="#7174C1"/>
<stop offset="1" stop-color="#2482C2"/>
</linearGradient>
</defs>
</svg>
